<mxfile host="app.diagrams.net" modified="2022-08-08T01:18:12.178Z" agent="5.0 (Macintosh; Intel Mac OS X 10_15_7) AppleWebKit/537.36 (KHTML, like Gecko) Chrome/103.0.0.0 Safari/537.36" etag="-OyODaI5kwDtJq7fAZtG" version="20.2.3" type="github">
  <diagram id="8IJhaLEXX_Wakx5nYYo2" name="第 1 页">
    <mxGraphModel dx="1426" dy="802" grid="1" gridSize="10" guides="1" tooltips="1" connect="1" arrows="1" fold="1" page="1" pageScale="1" pageWidth="827" pageHeight="1169" math="0" shadow="0">
      <root>
        <mxCell id="0" />
        <mxCell id="1" parent="0" />
        <mxCell id="yNiHfmcPQ3xYv25Pskbf-1" value="Actor" style="shape=umlActor;verticalLabelPosition=bottom;verticalAlign=top;html=1;sketch=1;shadow=0;" vertex="1" parent="1">
          <mxGeometry x="40" y="170" width="30" height="60" as="geometry" />
        </mxCell>
        <mxCell id="yNiHfmcPQ3xYv25Pskbf-2" value="" style="shape=flexArrow;endArrow=classic;html=1;rounded=0;sketch=1;" edge="1" parent="1">
          <mxGeometry width="50" height="50" relative="1" as="geometry">
            <mxPoint x="100" y="200" as="sourcePoint" />
            <mxPoint x="160" y="200" as="targetPoint" />
          </mxGeometry>
        </mxCell>
        <mxCell id="yNiHfmcPQ3xYv25Pskbf-5" value="«interface»&lt;br&gt;&lt;b&gt;IDaoY&lt;/b&gt;" style="html=1;rounded=1;shadow=0;glass=0;sketch=1;fontFamily=Comic Sans MS;fontSize=18;" vertex="1" parent="1">
          <mxGeometry x="200" y="175" width="120" height="50" as="geometry" />
        </mxCell>
        <mxCell id="yNiHfmcPQ3xYv25Pskbf-6" value="«interface»&lt;br&gt;&lt;b&gt;IDaoX&lt;/b&gt;" style="html=1;rounded=1;shadow=0;glass=0;sketch=1;fontFamily=Comic Sans MS;fontSize=18;" vertex="1" parent="1">
          <mxGeometry x="200" y="90" width="120" height="50" as="geometry" />
        </mxCell>
        <mxCell id="yNiHfmcPQ3xYv25Pskbf-7" value="«interface»&lt;br&gt;&lt;b&gt;IDaoZ&lt;/b&gt;" style="html=1;rounded=1;shadow=0;glass=0;sketch=1;fontFamily=Comic Sans MS;fontSize=18;" vertex="1" parent="1">
          <mxGeometry x="200" y="260" width="120" height="50" as="geometry" />
        </mxCell>
        <mxCell id="yNiHfmcPQ3xYv25Pskbf-8" value="MapperProxy&amp;lt;T&amp;gt;" style="html=1;rounded=1;shadow=0;glass=0;sketch=1;fontFamily=Comic Sans MS;fontSize=18;fillColor=#cce5ff;strokeColor=#36393d;" vertex="1" parent="1">
          <mxGeometry x="400" y="162.5" width="160" height="75" as="geometry" />
        </mxCell>
        <mxCell id="yNiHfmcPQ3xYv25Pskbf-10" value="FactoryBean" style="html=1;rounded=1;shadow=0;glass=0;sketch=1;fontFamily=Comic Sans MS;fontSize=18;fillColor=#cce5ff;strokeColor=#36393d;" vertex="1" parent="1">
          <mxGeometry x="640" y="162.5" width="160" height="75" as="geometry" />
        </mxCell>
        <mxCell id="yNiHfmcPQ3xYv25Pskbf-15" value="" style="endArrow=classic;html=1;rounded=0;sketch=1;fontFamily=Comic Sans MS;fontSize=18;exitX=1;exitY=0.5;exitDx=0;exitDy=0;entryX=0;entryY=0.5;entryDx=0;entryDy=0;" edge="1" parent="1" source="yNiHfmcPQ3xYv25Pskbf-6" target="yNiHfmcPQ3xYv25Pskbf-8">
          <mxGeometry width="50" height="50" relative="1" as="geometry">
            <mxPoint x="390" y="430" as="sourcePoint" />
            <mxPoint x="440" y="380" as="targetPoint" />
          </mxGeometry>
        </mxCell>
        <mxCell id="yNiHfmcPQ3xYv25Pskbf-16" value="" style="endArrow=classic;html=1;rounded=0;sketch=1;fontFamily=Comic Sans MS;fontSize=18;exitX=1;exitY=0.5;exitDx=0;exitDy=0;entryX=0;entryY=0.5;entryDx=0;entryDy=0;" edge="1" parent="1" source="yNiHfmcPQ3xYv25Pskbf-5" target="yNiHfmcPQ3xYv25Pskbf-8">
          <mxGeometry width="50" height="50" relative="1" as="geometry">
            <mxPoint x="400" y="440" as="sourcePoint" />
            <mxPoint x="450" y="390" as="targetPoint" />
          </mxGeometry>
        </mxCell>
        <mxCell id="yNiHfmcPQ3xYv25Pskbf-17" value="" style="endArrow=classic;html=1;rounded=0;sketch=1;fontFamily=Comic Sans MS;fontSize=18;exitX=1;exitY=0.5;exitDx=0;exitDy=0;entryX=0;entryY=0.5;entryDx=0;entryDy=0;" edge="1" parent="1" source="yNiHfmcPQ3xYv25Pskbf-7" target="yNiHfmcPQ3xYv25Pskbf-8">
          <mxGeometry width="50" height="50" relative="1" as="geometry">
            <mxPoint x="400" y="380" as="sourcePoint" />
            <mxPoint x="450" y="330" as="targetPoint" />
          </mxGeometry>
        </mxCell>
        <mxCell id="yNiHfmcPQ3xYv25Pskbf-18" value="" style="endArrow=classic;html=1;rounded=0;sketch=1;fontFamily=Comic Sans MS;fontSize=18;entryX=0;entryY=0.5;entryDx=0;entryDy=0;exitX=1;exitY=0.5;exitDx=0;exitDy=0;" edge="1" parent="1" source="yNiHfmcPQ3xYv25Pskbf-8" target="yNiHfmcPQ3xYv25Pskbf-10">
          <mxGeometry width="50" height="50" relative="1" as="geometry">
            <mxPoint x="390" y="430" as="sourcePoint" />
            <mxPoint x="440" y="380" as="targetPoint" />
          </mxGeometry>
        </mxCell>
        <mxCell id="yNiHfmcPQ3xYv25Pskbf-19" value="" style="rounded=1;whiteSpace=wrap;html=1;absoluteArcSize=1;arcSize=14;strokeWidth=2;shadow=0;glass=0;sketch=1;fontFamily=Comic Sans MS;fontSize=18;dashed=1;" vertex="1" parent="1">
          <mxGeometry x="640" y="320" width="160" height="260" as="geometry" />
        </mxCell>
        <mxCell id="yNiHfmcPQ3xYv25Pskbf-21" value="映射方法Mapper" style="rounded=1;whiteSpace=wrap;html=1;absoluteArcSize=1;arcSize=14;strokeWidth=2;shadow=0;glass=0;sketch=1;fontFamily=Comic Sans MS;fontSize=18;fillColor=#cce5ff;strokeColor=#36393d;" vertex="1" parent="1">
          <mxGeometry x="660" y="340" width="120" height="60" as="geometry" />
        </mxCell>
        <mxCell id="yNiHfmcPQ3xYv25Pskbf-22" value="" style="shape=curlyBracket;whiteSpace=wrap;html=1;rounded=1;flipH=1;shadow=0;glass=0;sketch=1;fontFamily=Comic Sans MS;fontSize=18;" vertex="1" parent="1">
          <mxGeometry x="827" y="320" width="20" height="260" as="geometry" />
        </mxCell>
        <mxCell id="yNiHfmcPQ3xYv25Pskbf-23" value="ORM" style="text;html=1;align=center;verticalAlign=middle;resizable=0;points=[];autosize=1;strokeColor=none;fillColor=none;fontSize=18;fontFamily=Comic Sans MS;" vertex="1" parent="1">
          <mxGeometry x="855" y="440" width="70" height="40" as="geometry" />
        </mxCell>
        <mxCell id="yNiHfmcPQ3xYv25Pskbf-24" value="映射方法Mapper" style="rounded=1;whiteSpace=wrap;html=1;absoluteArcSize=1;arcSize=14;strokeWidth=2;shadow=0;glass=0;sketch=1;fontFamily=Comic Sans MS;fontSize=18;fillColor=#cce5ff;strokeColor=#36393d;" vertex="1" parent="1">
          <mxGeometry x="660" y="420" width="120" height="60" as="geometry" />
        </mxCell>
        <mxCell id="yNiHfmcPQ3xYv25Pskbf-25" value="映射方法Mapper" style="rounded=1;whiteSpace=wrap;html=1;absoluteArcSize=1;arcSize=14;strokeWidth=2;shadow=0;glass=0;sketch=1;fontFamily=Comic Sans MS;fontSize=18;fillColor=#cce5ff;strokeColor=#36393d;" vertex="1" parent="1">
          <mxGeometry x="660" y="500" width="120" height="60" as="geometry" />
        </mxCell>
        <mxCell id="yNiHfmcPQ3xYv25Pskbf-27" value="" style="endArrow=classic;html=1;rounded=0;sketch=1;fontFamily=Comic Sans MS;fontSize=18;entryX=0.5;entryY=0;entryDx=0;entryDy=0;exitX=0.5;exitY=1;exitDx=0;exitDy=0;" edge="1" parent="1" source="yNiHfmcPQ3xYv25Pskbf-10" target="yNiHfmcPQ3xYv25Pskbf-19">
          <mxGeometry width="50" height="50" relative="1" as="geometry">
            <mxPoint x="570" y="210" as="sourcePoint" />
            <mxPoint x="650" y="210" as="targetPoint" />
          </mxGeometry>
        </mxCell>
        <mxCell id="yNiHfmcPQ3xYv25Pskbf-28" value="TargetObject" style="edgeLabel;html=1;align=center;verticalAlign=middle;resizable=0;points=[];fontSize=18;fontFamily=Comic Sans MS;" vertex="1" connectable="0" parent="yNiHfmcPQ3xYv25Pskbf-27">
          <mxGeometry x="-0.3333" y="1" relative="1" as="geometry">
            <mxPoint x="59" y="5" as="offset" />
          </mxGeometry>
        </mxCell>
        <mxCell id="yNiHfmcPQ3xYv25Pskbf-29" value="" style="shape=waypoint;sketch=0;fillStyle=solid;size=6;pointerEvents=1;points=[];fillColor=none;resizable=0;rotatable=0;perimeter=centerPerimeter;snapToPoint=1;rounded=1;shadow=0;glass=0;fontFamily=Comic Sans MS;fontSize=18;" vertex="1" parent="1">
          <mxGeometry x="240" y="350" width="40" height="40" as="geometry" />
        </mxCell>
        <mxCell id="yNiHfmcPQ3xYv25Pskbf-30" value="" style="shape=waypoint;sketch=0;fillStyle=solid;size=6;pointerEvents=1;points=[];fillColor=none;resizable=0;rotatable=0;perimeter=centerPerimeter;snapToPoint=1;rounded=1;shadow=0;glass=0;fontFamily=Comic Sans MS;fontSize=18;" vertex="1" parent="1">
          <mxGeometry x="240" y="330" width="40" height="40" as="geometry" />
        </mxCell>
        <mxCell id="yNiHfmcPQ3xYv25Pskbf-31" value="" style="shape=waypoint;sketch=0;fillStyle=solid;size=6;pointerEvents=1;points=[];fillColor=none;resizable=0;rotatable=0;perimeter=centerPerimeter;snapToPoint=1;rounded=1;shadow=0;glass=0;fontFamily=Comic Sans MS;fontSize=18;" vertex="1" parent="1">
          <mxGeometry x="240" y="310" width="40" height="40" as="geometry" />
        </mxCell>
        <mxCell id="yNiHfmcPQ3xYv25Pskbf-35" value="" style="edgeStyle=orthogonalEdgeStyle;endArrow=classic;html=1;rounded=0;sketch=1;fontFamily=Comic Sans MS;fontSize=18;strokeColor=default;entryX=0;entryY=0.5;entryDx=0;entryDy=0;curved=1;dashed=1;" edge="1" parent="1" source="yNiHfmcPQ3xYv25Pskbf-29" target="yNiHfmcPQ3xYv25Pskbf-19">
          <mxGeometry width="50" height="50" relative="1" as="geometry">
            <mxPoint x="390" y="420" as="sourcePoint" />
            <mxPoint x="440" y="370" as="targetPoint" />
          </mxGeometry>
        </mxCell>
      </root>
    </mxGraphModel>
  </diagram>
</mxfile>
